<?xml version="1.0" standalone="no"?>
<!DOCTYPE svg PUBLIC "-//W3C//DTD SVG 20010904//EN"
 "http://www.w3.org/TR/2001/REC-SVG-20010904/DTD/svg10.dtd">
<svg version="1.0" xmlns="http://www.w3.org/2000/svg"
 width="500.000000pt" height="500.000000pt" viewBox="0 0 500.000000 500.000000"
 preserveAspectRatio="xMidYMid meet">
<metadata>
Created by potrace 1.16, written by Peter Selinger 2001-2019
</metadata>
<g transform="translate(0.000000,500.000000) scale(0.100000,-0.100000)"
fill="#000000" stroke="none">
<path d="M1453 3935 c4 -36 4 -65 1 -65 -3 0 -12 7 -20 15 -9 8 -32 15 -53 15
-60 0 -101 -57 -101 -140 0 -49 27 -117 51 -130 31 -17 84 -12 104 10 l18 20
14 -20 c10 -13 25 -20 49 -20 l34 0 0 190 0 190 -51 0 -52 0 6 -65z"/>
<path d="M710 3957 c-52 -35 -74 -80 -74 -156 -1 -120 54 -181 164 -181 89 0
100 6 100 51 0 43 0 43 -54 28 -72 -20 -116 18 -116 102 0 94 52 128 143 94 9
-4 19 5 27 26 12 28 12 33 -5 45 -12 9 -45 14 -85 14 -53 0 -74 -5 -100 -23z"/>
<path d="M1971 3966 c-28 -16 -50 -52 -51 -84 0 -45 29 -81 90 -112 99 -50 70
-99 -39 -67 l-51 15 0 -39 c0 -47 21 -59 106 -59 66 0 108 20 129 60 33 64 11
112 -72 155 -41 21 -58 36 -58 50 0 16 7 20 35 20 19 -1 45 -4 57 -8 19 -7 25
-3 36 25 14 32 13 33 -12 45 -35 16 -140 16 -170 -1z"/>
<path d="M2255 3920 c-8 -16 -24 -34 -35 -40 -27 -14 -27 -50 0 -50 18 0 20
-7 20 -85 0 -104 14 -125 84 -125 64 0 76 7 76 44 0 29 -3 31 -32 31 l-33 0
-3 68 -3 67 36 0 c33 0 35 2 35 35 0 33 -2 35 -35 35 -31 0 -35 3 -35 25 0 21
-5 25 -30 25 -23 0 -33 -7 -45 -30z"/>
<path d="M3341 3923 c-7 -15 -21 -33 -32 -41 -22 -15 -26 -52 -5 -52 11 0 15
-20 17 -84 5 -105 19 -126 90 -126 67 0 79 7 79 44 0 30 -2 32 -29 28 -38 -5
-53 22 -49 86 3 45 4 47 36 50 29 3 32 6 32 37 0 31 -3 34 -32 37 -25 2 -34 8
-36 26 -5 34 -55 31 -71 -5z"/>
<path d="M1018 3882 c-42 -25 -61 -75 -56 -140 4 -48 10 -60 41 -89 32 -28 44
-33 87 -33 95 0 140 45 140 140 0 62 -20 105 -60 125 -39 20 -118 19 -152 -3z"/>
<path d="M1668 3884 c-38 -20 -58 -63 -58 -124 0 -96 45 -140 142 -140 83 0
98 7 98 44 l0 33 -49 -11 c-41 -8 -53 -7 -75 7 -14 10 -26 24 -26 32 0 12 17
15 85 15 l85 0 0 46 c0 39 -5 51 -34 80 -30 30 -40 34 -87 34 -30 -1 -66 -7
-81 -16z"/>
<path d="M2460 3760 l0 -140 45 0 45 0 0 84 c0 91 7 106 57 109 29 2 40 19 42
65 1 18 -4 22 -28 22 -15 0 -40 -10 -55 -21 l-27 -21 -6 21 c-4 16 -13 21 -39
21 l-34 0 0 -140z"/>
<path d="M2690 3818 c1 -152 25 -198 103 -198 28 0 48 7 64 22 l24 22 6 -22
c4 -17 13 -22 39 -22 l34 0 0 140 0 140 -45 0 -45 0 0 -89 c0 -90 -11 -121
-44 -121 -28 0 -36 26 -36 117 l0 93 -50 0 -50 0 0 -82z"/>
<path d="M3082 3880 c-57 -36 -77 -113 -47 -188 19 -47 60 -72 118 -72 74 0
97 13 97 56 0 30 -3 35 -17 29 -38 -15 -83 -17 -98 -5 -20 16 -20 103 -1 120
8 6 34 10 57 8 38 -3 43 -1 52 25 5 16 6 31 3 35 -4 3 -35 8 -69 10 -50 2 -69
-1 -95 -18z"/>
<path d="M3540 3795 c0 -110 12 -156 45 -169 34 -13 93 -6 118 14 25 20 25 20
30 0 4 -15 14 -20 41 -20 l36 0 0 140 0 140 -44 0 -44 0 -4 -89 c-4 -93 -16
-121 -49 -121 -29 0 -39 32 -39 124 l0 86 -45 0 -45 0 0 -105z"/>
<path d="M3880 3760 l0 -140 45 0 45 0 0 78 c0 91 11 113 61 117 32 2 34 4 37
44 3 39 2 41 -26 41 -18 0 -39 -10 -55 -26 l-26 -26 -7 26 c-5 22 -12 26 -40
26 l-34 0 0 -140z"/>
<path d="M4168 3884 c-38 -20 -58 -63 -58 -124 0 -96 45 -140 142 -140 83 0
98 7 98 44 l0 33 -49 -11 c-41 -8 -53 -7 -75 7 -14 10 -26 24 -26 32 0 12 17
15 85 15 l85 0 0 46 c0 39 -5 51 -34 80 -30 30 -40 34 -87 34 -30 -1 -66 -7
-81 -16z"/>
<path d="M2196 3485 c-8 -9 -18 -32 -21 -53 -4 -20 -8 -42 -10 -48 -2 -6 -35
-16 -73 -23 -39 -7 -97 -25 -130 -41 l-60 -28 -35 39 c-51 56 -78 53 -155 -17
-74 -67 -80 -96 -31 -151 33 -38 35 -28 -17 -108 -9 -14 -27 -54 -39 -88 l-23
-62 -57 0 c-72 0 -81 -12 -91 -113 -9 -103 2 -124 77 -136 l55 -9 27 -86 26
-86 -39 -37 c-54 -51 -53 -76 10 -155 62 -78 84 -85 143 -45 l43 30 64 -44
c35 -24 81 -50 102 -56 l38 -11 0 -63 c0 -78 14 -90 112 -100 108 -11 128 3
140 95 3 22 12 26 87 43 46 10 105 29 131 42 l47 25 35 -40 c51 -57 78 -54
156 17 74 67 80 96 31 151 -29 34 -30 36 -13 61 37 57 56 93 73 143 l19 53 50
-3 c72 -4 88 15 97 115 10 105 -1 127 -74 135 -29 4 -54 9 -55 10 -2 2 -15 42
-29 89 l-27 85 40 35 c54 47 53 74 -6 151 -42 55 -70 79 -92 79 -5 0 -29 -14
-55 -31 l-46 -30 -38 30 c-40 31 -133 81 -152 81 -8 0 -11 21 -9 60 3 73 -10
90 -79 101 -78 13 -130 10 -147 -6z m188 -389 c318 -156 285 -609 -52 -727
-83 -30 -205 -22 -287 16 -158 75 -256 259 -225 423 22 121 104 233 209 286
72 37 114 46 203 42 66 -2 89 -8 152 -40z"/>
<path d="M3267 3084 c-4 -4 -7 -15 -7 -25 0 -12 -17 -27 -50 -42 -44 -21 -51
-22 -65 -8 -19 19 -42 7 -65 -32 -13 -24 -13 -28 2 -39 17 -12 17 -16 1 -60
-12 -33 -24 -48 -38 -50 -16 -2 -20 -10 -20 -43 0 -36 3 -40 26 -43 34 -4 57
-60 37 -91 -11 -18 -9 -24 15 -48 24 -24 30 -26 48 -15 29 18 107 -11 111 -42
2 -17 10 -21 43 -21 33 0 41 4 43 21 4 29 96 68 122 51 16 -9 24 -7 45 13 28
27 31 42 11 59 -21 18 10 109 38 113 17 2 21 10 21 43 0 36 -3 40 -27 43 -36
4 -54 47 -36 87 11 25 10 29 -16 52 -25 21 -30 22 -50 10 -18 -12 -26 -11 -61
4 -26 11 -42 26 -45 41 -5 18 -14 24 -41 26 -19 2 -38 0 -42 -4z m130 -187
c86 -85 30 -227 -90 -227 -139 0 -189 177 -69 249 54 32 113 24 159 -22z"/>
<path d="M3106 2495 c-3 -9 -6 -24 -6 -34 0 -11 -22 -26 -64 -45 -62 -26 -65
-27 -90 -11 -29 19 -41 14 -76 -35 -20 -27 -20 -28 0 -53 21 -26 21 -26 1 -84
-17 -49 -24 -59 -48 -63 -27 -5 -28 -8 -28 -60 0 -55 0 -55 33 -58 29 -3 36
-9 53 -49 18 -41 18 -48 4 -63 -21 -24 -19 -40 12 -72 30 -31 49 -35 73 -13
14 12 22 11 73 -8 37 -14 57 -28 57 -39 0 -40 11 -48 65 -48 55 0 65 8 65 51
0 10 6 19 13 19 8 0 35 11 61 24 45 23 49 23 76 8 28 -16 30 -16 59 12 34 33
39 61 16 86 -14 16 -14 22 -1 56 8 22 16 48 18 59 2 13 13 22 33 25 26 4 30
10 33 39 6 60 -4 81 -41 81 -28 0 -34 5 -49 42 -16 37 -16 43 -3 58 23 25 18
53 -13 83 -32 31 -48 33 -73 11 -17 -15 -22 -15 -72 6 -43 18 -55 28 -63 54
-8 29 -12 31 -60 34 -40 2 -53 -1 -58 -13z m170 -201 c62 -50 78 -78 82 -148
7 -113 -54 -189 -170 -211 -90 -17 -196 58 -216 151 -16 75 14 164 66 199 62
41 78 46 139 43 51 -3 69 -9 99 -34z"/>
<path d="M2520 1450 l0 -190 45 0 45 0 0 38 c0 35 14 62 31 62 5 0 20 -22 36
-50 l28 -50 53 0 c52 0 52 1 41 23 -7 12 -30 48 -51 80 l-39 58 45 54 c25 29
46 56 46 59 0 3 -22 6 -49 6 -49 0 -50 -1 -95 -61 l-46 -61 0 111 0 111 -45 0
-45 0 0 -190z"/>
<path d="M1720 1440 l0 -180 40 0 40 0 1 128 1 127 36 -127 37 -128 46 0 45 0
36 128 36 127 1 -127 1 -128 45 0 45 0 0 180 0 180 -64 0 -65 0 -25 -82 c-13
-46 -30 -102 -37 -126 -7 -23 -15 -39 -19 -35 -4 4 -22 61 -41 126 l-33 117
-63 0 -63 0 0 -180z"/>
<path d="M2243 1530 c-27 -11 -27 -11 -11 -45 8 -17 17 -24 27 -20 9 4 30 9
48 12 24 4 33 1 42 -15 10 -19 7 -21 -42 -27 -92 -13 -117 -34 -117 -99 0 -68
94 -103 153 -56 l26 20 6 -20 c5 -15 15 -20 42 -20 l35 0 -4 116 c-3 113 -4
116 -31 140 -23 20 -38 24 -90 23 -34 0 -72 -4 -84 -9z"/>
<path d="M2894 1521 c-78 -47 -71 -207 11 -245 37 -18 136 -21 166 -6 26 14
28 76 2 66 -9 -4 -36 -10 -59 -13 -34 -4 -46 -1 -63 16 -12 12 -19 26 -16 31
4 6 42 10 86 10 l79 0 0 40 c0 52 -18 88 -51 106 -40 20 -118 18 -155 -5z"/>
<path d="M3170 1400 l0 -140 45 0 45 0 0 84 c0 91 7 106 57 109 29 2 40 19 42
65 1 18 -4 22 -28 22 -15 0 -40 -10 -55 -21 l-27 -21 -6 21 c-4 16 -13 21 -39
21 l-34 0 0 -140z"/>
</g>
</svg>
